<?xml version="1.0" encoding="UTF-8" standalone="no"?>
<svg
   version="1.1"
   id="Layer_1"
   x="0px"
   y="0px"
   width="100%"
   viewBox="0 0 352 352"
   enable-background="new 0 0 352 352"
   xml:space="preserve"
   sodipodi:docname="logo.svg"
   inkscape:version="1.4 (86a8ad7, 2024-10-11)"
   xmlns:inkscape="http://www.inkscape.org/namespaces/inkscape"
   xmlns:sodipodi="http://sodipodi.sourceforge.net/DTD/sodipodi-0.dtd"
   xmlns="http://www.w3.org/2000/svg"
   xmlns:svg="http://www.w3.org/2000/svg"><defs
   id="defs2" /><sodipodi:namedview
   id="namedview2"
   pagecolor="#ffffff"
   bordercolor="#000000"
   borderopacity="0.25"
   inkscape:showpageshadow="2"
   inkscape:pageopacity="0.0"
   inkscape:pagecheckerboard="0"
   inkscape:deskcolor="#d1d1d1"
   inkscape:zoom="0.55326705"
   inkscape:cx="359.68164"
   inkscape:cy="-212.37484"
   inkscape:window-width="1728"
   inkscape:window-height="1001"
   inkscape:window-x="1721"
   inkscape:window-y="-7"
   inkscape:window-maximized="1"
   inkscape:current-layer="Layer_1" />

<g
   id="g2"
   transform="matrix(2.1667021,0,0,1.8988832,-216.34498,-167.23816)"><path
     fill="#000000"
     opacity="1"
     stroke="none"
     d="m 189.01779,259.09979 c -5.31177,4.53467 -10.06412,4.23639 -15.50772,0.44867 -5.99458,-4.17106 -12.51974,-7.60365 -18.94031,-11.12739 -2.82873,-1.55246 -4.00567,-3.4888 -3.95192,-6.75046 0.16465,-9.99137 0.17896,-19.98969 -0.0178,-29.97998 -0.0648,-3.28836 1.15068,-5.11556 3.94018,-6.71028 21.53833,-12.31307 42.88314,-24.9704 64.5641,-37.02427 5.68236,-3.15919 8.26549,-6.60832 7.74108,-13.22808 -0.60317,-7.61425 -0.16664,-15.31342 -0.11196,-22.97521 0.0127,-1.77562 -0.43855,-3.65993 1.10466,-5.84137 5.49842,2.02314 10.07322,6.12876 15.52631,8.28617 7.43156,2.94014 9.43141,7.85188 9.2146,15.72648 -0.60492,21.97038 -0.34535,43.96988 -0.0978,65.95419 0.0536,4.76215 -1.37484,7.47414 -5.5958,9.85055 -19.29535,10.86326 -38.38515,22.09162 -57.86766,33.37098 m 16.76712,-53.75856 c -8.9203,5.16135 -17.85783,10.29329 -26.7503,15.50214 -2.63976,1.54628 -3.87467,7.62687 -2.00927,10.14006 2.27388,3.0636 4.8153,2.37768 7.78693,0.61758 12.58566,-7.45453 25.29062,-14.70765 37.9514,-22.0354 1.87552,-1.08548 3.897,-2.04265 3.88699,-4.70042 -0.0129,-3.43401 -0.003,-6.86807 -0.003,-10.83135 -7.57834,3.1071 -13.62496,7.54775 -20.8626,11.30739 z"
     id="path1" /><path
     fill="#000000"
     opacity="1"
     stroke="none"
     d="m 202.66034,159.71356 c -21.2307,12.27208 -42.11157,24.41385 -63.10291,36.36156 -3.16206,1.79977 -4.40464,3.84523 -4.32714,7.49118 0.22598,10.63126 0.0802,21.27042 0.0802,31.49214 -1.97226,1.47102 -3.10138,0.44574 -4.1884,-0.17972 -6.06464,-3.48953 -12.04528,-7.12808 -18.15992,-10.52623 -2.51452,-1.39743 -3.38325,-3.22281 -3.37463,-6.04318 0.0759,-24.82925 0.0846,-49.65904 -0.0233,-74.48808 -0.0133,-3.06954 1.08695,-4.93656 3.67031,-6.41869 21.67371,-12.43464 43.31836,-24.92008 64.94062,-37.443968 1.94679,-1.127616 3.59527,-1.217262 5.56398,-0.06201 8.04586,4.721358 16.12617,9.386008 24.25532,13.962198 2.4746,1.39302 3.4353,3.24825 3.3925,6.07602 -0.12603,8.33011 -0.55427,16.70488 0.11501,24.98301 0.58903,7.28585 -1.43662,12.20692 -8.84166,14.79577 m -17.01267,-25.82057 c -1.26359,-4.95082 -3.45011,-6.14804 -7.59617,-3.80168 -11.99942,6.79078 -23.94785,13.67229 -35.88268,20.57629 -7.32063,4.23482 -8.77728,8.54404 -5.79379,17.3559 15.72166,-9.11254 31.35997,-18.21501 47.04756,-27.23175 2.60414,-1.49678 2.19112,-3.81728 2.22508,-6.89876 z"
     id="path2" /></g>
</svg>
